<svg xmlns="http://www.w3.org/2000/svg" id="Group_2" width="257.282" height="300.02" data-name="Group 2" viewBox="0 0 257.282 300.02">
    <defs>
        <style>
            .cls-1{fill:#001934}
        </style>
    </defs>
    <path id="Path_7" d="M254.743 100.106c8.55-20.6 8.55-62.569-2.72-94.824-3.109-5.829-11.659-3.882-12.048 2.332v2.331c-1.943 30.7-13.213 47.412-29.924 55.573-2.72 1.166-7 1.166-9.716-.777a127.93 127.93 0 0 0-136.8 0 9.572 9.572 0 0 1-8.55.777c-17.1-6.218-28.758-24.872-30.7-55.962V7.225C23.9 1.007 14.962-.936 12.241 4.893.971 37.538 1.36 79.509 9.521 100.106c4.275 10.1 4.275 21.763.777 32.256a120.208 120.208 0 0 0-6.607 42.749c1.554 67.621 59.071 125.137 126.692 126.3a128.4 128.4 0 0 0 123.194-169.049 46.086 46.086 0 0 1 1.166-32.256zm-124.36 170.606c-52.076-1.166-94.824-43.526-95.6-95.6-1.166-55.573 43.915-100.654 99.1-99.488 52.076.777 94.824 43.526 95.6 95.6 1.165 55.185-43.915 100.266-99.1 99.488z" class="cls-1" data-name="Path 7" transform="translate(-3.568 -1.402)"/>
    <path id="Path_8" d="M82.18 73.425L59.251 38.06c-3.5-5.829-11.27-7.384-17.1-3.886a12.754 12.754 0 0 0-5.829 10.493 13.1 13.1 0 0 0 1.943 6.607L53.81 75.368a5.274 5.274 0 0 1-.389 5.829l-24.094 26.427a12.328 12.328 0 0 0 .777 17.488 13.581 13.581 0 0 0 8.55 3.109 12.651 12.651 0 0 0 8.938-3.886l17.877-20.986c1.554-1.554 3.886-1.554 5.052.389L83.346 122a7.626 7.626 0 0 0 3.5 3.5 12.3 12.3 0 0 0 13.99.389 12.754 12.754 0 0 0 5.829-10.493 13.1 13.1 0 0 0-1.943-6.607z" class="cls-1" data-name="Path 8" transform="translate(61.346 87.848)"/>
</svg>
